<svg width="312" height="44" viewBox="0 0 312 44" fill="none" xmlns="http://www.w3.org/2000/svg">
<path d="M4.88 32.56H23.792V3.808L12.992 26.944L2.192 3.76V34L0.752 33.952V0.351998H2.192L12.992 23.536L23.792 0.399998L25.232 0.351998V34L4.88 33.952V32.56ZM36.2244 6.16H54.8004L43.5204 32.8V43.6H42.0804V32.8L30.8004 6.16H32.3364L42.8004 30.784L52.6404 7.6H36.2244V6.16ZM64.121 32.56H77.369L71.561 16.624L74.249 15.088C76.457 13.872 77.561 11.936 77.561 9.28C77.561 4.32 73.785 1.84 66.233 1.84H61.817V34H60.377V0.399998H66.233C70.457 0.399998 73.641 1.184 75.785 2.752C77.929 4.288 79.001 6.464 79.001 9.28C79.001 12.48 77.657 14.832 74.969 16.336L73.337 17.248L79.433 34H64.121V32.56ZM105.2 31.168C103.44 33.376 100.56 34.48 96.5596 34.48C92.5596 34.48 89.6956 33.344 87.9676 31.072C86.2396 28.8 85.3756 25.136 85.3756 20.08C85.3756 15.024 86.2396 11.36 87.9676 9.088C89.6956 6.816 92.5596 5.68 96.5596 5.68C101.2 5.68 104.352 7.2 106.016 10.24L94.2556 20.08H91.9996L104.144 9.952C102.736 8.064 100.208 7.12 96.5596 7.12C94.9596 7.12 93.6156 7.296 92.5276 7.648C91.4396 7.968 90.4316 8.592 89.5036 9.52C88.6076 10.416 87.9356 11.744 87.4876 13.504C87.0396 15.232 86.8156 17.424 86.8156 20.08C86.8156 22.736 87.0396 24.944 87.4876 26.704C87.9356 28.432 88.6076 29.76 89.5036 30.688C90.4316 31.584 91.4396 32.208 92.5276 32.56C93.6156 32.88 94.9596 33.04 96.5596 33.04C100.208 33.04 102.736 32.096 104.144 30.208L105.2 31.168ZM120.217 5.584C124.185 5.584 127.001 6.464 128.665 8.224L127.705 9.28C126.169 7.776 123.737 7.024 120.409 7.024C115.417 7.024 112.921 9.008 112.921 12.976C112.921 14.512 113.529 15.744 114.745 16.672C115.961 17.568 117.433 18.256 119.161 18.736C120.921 19.216 122.665 19.728 124.393 20.272C126.153 20.784 127.641 21.632 128.857 22.816C130.073 23.968 130.681 25.488 130.681 27.376C130.681 29.584 129.769 31.344 127.945 32.656C126.121 33.968 123.481 34.624 120.025 34.624C118.329 34.624 116.649 34.4 114.985 33.952C113.353 33.504 112.137 32.848 111.337 31.984L112.297 30.928C113.929 32.432 116.441 33.184 119.833 33.184C122.937 33.184 125.273 32.608 126.841 31.456C128.441 30.304 129.241 28.96 129.241 27.424C129.241 25.824 128.633 24.528 127.417 23.536C126.201 22.544 124.713 21.808 122.953 21.328C121.225 20.816 119.481 20.304 117.721 19.792C115.993 19.248 114.521 18.416 113.305 17.296C112.089 16.176 111.48 14.704 111.48 12.88C111.48 10.416 112.297 8.592 113.929 7.408C115.593 6.192 117.689 5.584 120.217 5.584ZM155.669 6.16V7.6H145.589V34H144.149V7.6H134.069V6.16H155.669ZM163.745 32.56H179.393L169.553 9.376L159.089 34H157.553L169.553 5.68L181.553 34H163.745V32.56ZM187.989 6.16V20.08C187.989 24.848 188.741 28.208 190.245 30.16C191.781 32.08 193.877 33.04 196.533 33.04C199.189 33.04 201.269 32.08 202.773 30.16C204.309 28.208 205.077 24.848 205.077 20.08V6.16H206.517V20.08C206.517 29.68 203.189 34.48 196.533 34.48C189.877 34.48 186.549 29.68 186.549 20.08V6.16H187.989ZM226.866 20.032L233.394 34H231.81L225.09 19.6C225.154 19.568 225.426 19.44 225.906 19.216C226.418 18.96 226.77 18.784 226.962 18.688C227.154 18.56 227.474 18.352 227.922 18.064C228.37 17.776 228.706 17.504 228.93 17.248C229.154 16.96 229.394 16.64 229.65 16.288C229.938 15.904 230.146 15.488 230.274 15.04C230.402 14.56 230.466 14.048 230.466 13.504C230.466 11.488 229.506 10 227.586 9.04C225.666 8.08 223.282 7.6 220.434 7.6H216.594V34H215.154V6.16H220.434C224.21 6.16 227.058 6.816 228.978 8.128C230.93 9.44 231.906 11.232 231.906 13.504C231.906 14.976 231.41 16.288 230.418 17.44C229.426 18.56 228.242 19.424 226.866 20.032ZM242.448 32.56H258.096L248.256 9.376L237.792 34H236.256L248.256 5.68L260.256 34H242.448V32.56ZM265.732 34V6.16H267.172L282.82 31.36V6.16H284.26V34H282.82L267.172 8.752V34H265.732ZM311.388 6.16V7.6H301.308V34H299.868V7.6H289.788V6.16H311.388Z" fill="#F78888"/>
</svg>
